<svg xmlns="http://www.w3.org/2000/svg" xmlns:xlink="http://www.w3.org/1999/xlink" version="1.1" x="0px" y="0px" viewBox="0 0 100 125" enable-background="new 0 0 100 100" xml:space="preserve"><g><path d="M49.536,88.504c-21.062,0-38.196-17.135-38.196-38.196s17.135-38.196,38.196-38.196s38.196,17.135,38.196,38.196   S70.598,88.504,49.536,88.504z M49.536,15.111c-19.407,0-35.196,15.789-35.196,35.196s15.789,35.196,35.196,35.196   s35.196-15.789,35.196-35.196S68.943,15.111,49.536,15.111z"/></g><g><path d="M67.865,51.803H28.779c-0.829,0-1.5-0.671-1.5-1.5s0.671-1.5,1.5-1.5h39.086c0.829,0,1.5,0.671,1.5,1.5   S68.694,51.803,67.865,51.803z"/></g><g><path d="M56.791,63.5c-0.443,0-0.881-0.195-1.177-0.569c-0.514-0.65-0.404-1.593,0.246-2.107l4.666-3.69l7.495-6.689L55.641,39.75   c-0.627-0.542-0.696-1.489-0.155-2.116c0.542-0.627,1.491-0.695,2.116-0.155l13.671,11.811c0.327,0.282,0.516,0.691,0.52,1.124   c0.003,0.432-0.179,0.844-0.501,1.131l-8.838,7.884l-4.733,3.748C57.445,63.395,57.116,63.5,56.791,63.5z"/></g><text x="0" y="115" fill="#000000" font-size="5px" font-weight="bold" font-family="'Helvetica Neue', Helvetica, Arial-Unicode, Arial, Sans-serif">Created by 4B Icons</text><text x="0" y="120" fill="#000000" font-size="5px" font-weight="bold" font-family="'Helvetica Neue', Helvetica, Arial-Unicode, Arial, Sans-serif">from the Noun Project</text></svg>